# xmcd CD database file
#
# Track frame offsets:
#	150
#	17851
#	34836
#	60819
#	80847
#	103207
#	122022
#	144867
#	163402
#	180608
#	206205
#	230399
#	248984
#
# Disc length: 3690 seconds
#
# Revision: 0
# Processed by: cddbd v1.4PL0 Copyright (c) Steve Scherf et al.
# Submitted via: CDex 1.50
#
DISCID=b40e680d
DTITLE=Moose and The Bulletproof Blues Band - Movin On
DYEAR=1900
DGENRE=Blues
TTITLE0=Runnin' With The Blues
TTITLE1=No More
TTITLE2=Evenin' In Love
TTITLE3=I'm Ready
TTITLE4=Come To Pap
TTITLE5=Shuffle Out
TTITLE6=Bad Luck
TTITLE7=Ain't That Wrong
TTITLE8=My Baby's a Superstar
TTITLE9=I Didn't Know
TTITLE10=Some Kinda' Wonderful
TTITLE11=I'm Moving On
TTITLE12=Shine Down On You
EXTD=
EXTT0=
EXTT1=
EXTT2=
EXTT3=
EXTT4=
EXTT5=
EXTT6=
EXTT7=
EXTT8=
EXTT9=
EXTT10=
EXTT11=
EXTT12=
PLAYORDER=
